<?xml version="1.0" encoding="UTF-8"?> <svg xmlns="http://www.w3.org/2000/svg" xmlns:xlink="http://www.w3.org/1999/xlink" id="logo" viewBox="0 0 210 60" xml:space="preserve" preserveAspectRatio="xMinYMid slice"> <g id="tree" viewBox="0 0 60 60" preserveAspectRatio="xMidYMid meet" fill="#59c4c3"> <path style="stroke:none!important" d="M28.6,5.4c13.6,0,24.6,11,24.6,24.6c0,13.6-11,24.6-24.6,24.6C15,54.6,4,43.6,4,30C4,16.4,15,5.4,28.6,5.4 M28.6,3.4C13.9,3.4,2,15.3,2,30c0,14.7,11.9,26.6,26.6,26.6S55.2,44.7,55.2,30C55.2,15.3,43.3,3.4,28.6,3.4L28.6,3.4z"></path> <path style="stroke:none!important" fill-rule="evenodd" clip-rule="evenodd" d="M36.3,19.1l-6.4-3.8c-0.3-0.2-0.6-0.3-0.8-0.3 c-0.1,0-0.2,0-0.3,0c0,0-0.1,0-0.1,0c0,0,0,0-0.1,0c-0.1,0-0.2,0-0.3,0c-0.3,0.1-0.5,0.2-0.8,0.3l-6.4,3.8 c-1.3,0.8-2.4,2.6-2.4,3.9v2.2c0,1.4,1.1,1.8,2.4,1l6.4-3.8c0.4-0.3,0.9-0.6,1.2-1.1c0.4,0.4,0.8,0.8,1.2,1.1l6.4,3.8 c1.3,0.8,2.4,0.3,2.4-1V23C38.7,21.6,37.6,19.9,36.3,19.1z"></path> <path style="stroke:none!important" fill-rule="evenodd" clip-rule="evenodd" d="M36.3,28.2l-6.4-3.8c-0.3-0.2-0.6-0.3-0.8-0.3 c-0.1,0-0.2,0-0.3,0c0,0-0.1,0-0.1,0c0,0,0,0-0.1,0c-0.1,0-0.2,0-0.3,0c-0.3,0.1-0.5,0.2-0.8,0.3l-6.4,3.8 c-1.3,0.8-2.4,2.6-2.4,3.9v2.2c0,1.4,1.1,1.8,2.4,1l6.4-3.8c0.4-0.3,0.9-0.6,1.2-1.1c0.4,0.4,0.8,0.8,1.2,1.1l6.4,3.8 c1.3,0.8,2.4,0.3,2.4-1v-2.2C38.7,30.8,37.6,29,36.3,28.2z"></path> <path style="stroke:none!important" fill-rule="evenodd" clip-rule="evenodd" d="M36.3,37.5l-6.4-3.8c-0.3-0.2-0.6-0.3-0.8-0.3 c-0.1,0-0.2,0-0.3,0c0,0-0.1,0-0.1,0c0,0,0,0-0.1,0c-0.1,0-0.2,0-0.3,0c-0.3,0.1-0.5,0.2-0.8,0.3l-6.4,3.8 c-1.3,0.8-2.4,2.6-2.4,3.9v2.2c0,1.4,1.1,1.8,2.4,1l6.4-3.8c0.4-0.3,0.9-0.6,1.2-1.1c0.4,0.4,0.8,0.8,1.2,1.1l6.4,3.8 c1.3,0.8,2.4,0.3,2.4-1v-2.2C38.7,40,37.6,38.2,36.3,37.5z"></path> </g> <g id="words" viewBox="60 0 150 60" preserveAspectRatio="xMinYMid meet" fill="#2c7a75"> <path style="stroke:none!important" d="M80.2,30.1c0,5.2-3,8.9-8,8.9c-5,0-8-3.7-8-8.9c0-5.2,3-8.9,8-8.9C77.1,21.2,80.2,24.9,80.2,30.1z M78.8,30.1c0-5.3-3.1-7.9-6.7-7.9c-3.6,0-6.7,2.6-6.7,7.9c0,5.2,3.1,7.8,6.7,7.8C75.7,37.9,78.8,35.3,78.8,30.1z"></path> <path style="stroke:none!important" d="M96.6,29.1v9.4h-1.2v-9.1c0-1.1,0-1.9-0.1-2.7c-0.3-2.6-1.7-4.4-4.8-4.4c-3,0-5.7,2.1-5.7,6.9v9.3h-1.2 V21.6h1.2v3.6l0.8-1.8c1.3-1.6,3.1-2.3,5.1-2.3c3.5,0,5.5,1.9,5.9,5.1C96.5,27.2,96.6,27.7,96.6,29.1z"></path> <path style="stroke:none!important" d="M114.6,30.4h-13.4c0.2,5.5,3.2,7.5,6.1,7.5c2.6,0,5-1.5,5.8-4.7h1.2c-0.9,3.8-3.9,5.7-7.1,5.7 c-4,0-7.4-3-7.4-8.9c0-5.3,3.4-8.8,7.7-8.8c4.8,0,7.1,4,7.1,8.4C114.6,29.8,114.6,30,114.6,30.4z M101.1,29.4h12.2 c-0.2-5.2-3.1-7.1-5.9-7.1C104.5,22.2,101.3,24.5,101.1,29.4z"></path> <path fill="#59c4c3" style="stroke:none!important" d="M130.9,38.5h-1.2v-3.6l-0.8,1.8c-1.3,1.6-3.1,2.3-5.1,2.3c-3.4,0-5.5-1.9-5.9-5c-0.1-0.9-0.1-1.4-0.1-2.8 v-9.5h1.2v9.2c0,1,0,1.8,0.1,2.7c0.3,2.6,1.8,4.4,4.8,4.4c3,0,5.7-2.1,5.7-6.9v-9.3h1.2V38.5z"></path> <path fill="#59c4c3" style="stroke:none!important" d="M150,29.9c0,6.1-3.7,9.1-7.8,9.1c-2,0-3.5-0.6-4.7-1.9l-1-2v9.7h-1.2V21.4h1.2v3.7l1-1.9 c1.4-1.5,2.9-2.1,5.1-2.1C147.2,21.2,150,24.8,150,29.9z M148.7,30.1c0-4.3-2.1-7.9-6.2-7.9c-3.2,0-6,1.9-6,7.2v1.7 c0,5.2,3.1,6.9,5.7,6.9C146,37.9,148.7,34.8,148.7,30.1z"></path> <path style="stroke:none!important" d="M168.7,38.5h-1.5l-4.5-15.6l-4.5,15.6h-1.6l-5.4-16.9h1.4l4.8,15.7l4.5-15.7h1.6l4.6,15.6l4.7-15.6h1.3 L168.7,38.5z"></path> <path style="stroke:none!important" d="M189.8,30.4h-13.4c0.2,5.5,3.2,7.5,6.1,7.5c2.6,0,5-1.5,5.8-4.7h1.2c-0.9,3.8-3.9,5.7-7.1,5.7 c-4,0-7.4-3-7.4-8.9c0-5.3,3.4-8.8,7.7-8.8c4.8,0,7.1,4,7.1,8.4C189.8,29.8,189.8,30,189.8,30.4z M176.4,29.4h12.2 c-0.2-5.2-3.1-7.1-5.9-7.1C179.7,22.2,176.6,24.5,176.4,29.4z"></path> <path style="stroke:none!important" d="M208,29.9c0,6.1-3.7,9.1-7.8,9.1c-2,0-3.5-0.6-4.7-1.9l-1-2v3.5h-1.2V15h1.2v10.2l1-1.9 c1.4-1.5,2.9-2.1,5.1-2.1C205.2,21.2,208,24.8,208,29.9z M206.7,30.1c0-4.3-2.1-7.9-6.2-7.9c-3.2,0-6,1.9-6,7.2v1.7 c0,5.2,3.1,6.9,5.7,6.9C204,37.9,206.7,34.8,206.7,30.1z"></path> </g> </svg> 